{
  "accessors": [
    {
      "bufferView": 2,
      "componentType": 5126,
      "count": 98,
      "max": [
        10.447582244873047,
        9.936241149902344,
        108.84815216064453
      ],
      "min": [
        -10.447582244873047,
        -9.936241149902344,
        0.0
      ],
      "type": "VEC3"
    },
    {
      "bufferView": 2,
      "byteOffset": 1176,
      "componentType": 5126,
      "count": 98,
      "max": [
        0.9868044257164001,
        0.9385068416595459,
        0.40534019470214844
      ],
      "min": [
        -0.9868044257164001,
        -0.9385069012641907,
        -1.0
      ],
      "type": "VEC3"
    },
    {
      "bufferView": 3,
      "componentType": 5126,
      "count": 98,
      "max": [
        0.9659265875816345,
        0.998619019985199,
        0.1397017240524292,
        1.0
      ],
      "min": [
        -0.9593837857246399,
        -0.9999998807907104,
        -0.13970188796520233,
        -1.0
      ],
      "type": "VEC4"
    },
    {
      "bufferView": 1,
      "componentType": 5126,
      "count": 98,
      "max": [
        0.9911564588546753,
        0.8991156816482544
      ],
      "min": [
        0.009016756899654865,
        0.008161114528775215
      ],
      "type": "VEC2"
    },
    {
      "bufferView": 0,
      "componentType": 5125,
      "count": 444,
      "type": "SCALAR"
    },
    {
      "bufferView": 2,
      "byteOffset": 2352,
      "componentType": 5126,
      "count": 51,
      "max": [
        3.776083469390869,
        3.5912740230560303,
        112.37806701660156
      ],
      "min": [
        -3.776082992553711,
        -3.5912675857543945,
        108.84815216064453
      ],
      "type": "VEC3"
    },
    {
      "bufferView": 2,
      "byteOffset": 2964,
      "componentType": 5126,
      "count": 51,
      "max": [
        1.0,
        0.9510568380355835,
        1.0
      ],
      "min": [
        -1.0,
        -0.9510570168495178,
        -1.0
      ],
      "type": "VEC3"
    },
    {
      "bufferView": 3,
      "byteOffset": 1568,
      "componentType": 5126,
      "count": 51,
      "max": [
        0.959533154964447,
        0.4638727009296417,
        0.994912326335907,
        1.0
      ],
      "min": [
        -2.4673457943436006e-08,
        -0.31134605407714844,
        -0.9950929284095764,
        1.0
      ],
      "type": "VEC4"
    },
    {
      "bufferView": 1,
      "byteOffset": 784,
      "componentType": 5126,
      "count": 51,
      "max": [
        0.9943783283233643,
        0.6653186082839966
      ],
      "min": [
        0.7092887759208679,
        0.36579644680023193
      ],
      "type": "VEC2"
    },
    {
      "bufferView": 0,
      "byteOffset": 1776,
      "componentType": 5125,
      "count": 210,
      "type": "SCALAR"
    }
  ],
  "asset": {
    "extras": {
      "author": "TraianDumbrava (https://sketchfab.com/TraianDumbrava)",
      "license": "CC-BY-4.0 (http://creativecommons.org/licenses/by/4.0/)",
      "source": "https://sketchfab.com/3d-models/samuel-beer-3c6f04b0a330419c9b94e5da6248bb3f",
      "title": "Samuel Beer"
    },
    "generator": "Sketchfab-12.67.0",
    "version": "2.0"
  },
  "bufferViews": [
    {
      "buffer": 0,
      "byteLength": 2616,
      "name": "floatBufferViews",
      "target": 34963
    },
    {
      "buffer": 0,
      "byteLength": 1192,
      "byteOffset": 2616,
      "byteStride": 8,
      "name": "floatBufferViews",
      "target": 34962
    },
    {
      "buffer": 0,
      "byteLength": 3576,
      "byteOffset": 3808,
      "byteStride": 12,
      "name": "floatBufferViews",
      "target": 34962
    },
    {
      "buffer": 0,
      "byteLength": 2384,
      "byteOffset": 7384,
      "byteStride": 16,
      "name": "floatBufferViews",
      "target": 34962
    }
  ],
  "buffers": [
    {
      "byteLength": 9768,
      "uri": "scene.bin"
    }
  ],
  "images": [
    {
      "uri": "textures/Scene_-_Root_baseColor.jpeg"
    },
    {
      "uri": "textures/Scene_-_Root_metallicRoughness.png"
    },
    {
      "uri": "textures/Scene_-_Root_normal.jpeg"
    }
  ],
  "materials": [
    {
      "doubleSided": true,
      "name": "Scene_-_Root",
      "normalTexture": {
        "index": 2,
        "scale": 0.7578125
      },
      "pbrMetallicRoughness": {
        "baseColorFactor": [
          0.8954955037119458,
          0.8954955037119458,
          0.8954955037119458,
          1.0
        ],
        "baseColorTexture": {
          "index": 0
        },
        "metallicRoughnessTexture": {
          "index": 1
        }
      }
    }
  ],
  "meshes": [
    {
      "name": "Bottle_low__0",
      "primitives": [
        {
          "attributes": {
            "NORMAL": 1,
            "POSITION": 0,
            "TANGENT": 2,
            "TEXCOORD_0": 3
          },
          "indices": 4,
          "material": 0,
          "mode": 4
        }
      ]
    },
    {
      "name": "Cap_low__0",
      "primitives": [
        {
          "attributes": {
            "NORMAL": 6,
            "POSITION": 5,
            "TANGENT": 7,
            "TEXCOORD_0": 8
          },
          "indices": 9,
          "material": 0,
          "mode": 4
        }
      ]
    }
  ],
  "nodes": [
    {
      "children": [
        1
      ],
      "matrix": [
        1.0,
        0.0,
        0.0,
        0.0,
        0.0,
        2.220446049250313e-16,
        -1.0,
        0.0,
        0.0,
        1.0,
        2.220446049250313e-16,
        0.0,
        0.0,
        0.0,
        0.0,
        1.0
      ],
      "name": "Sketchfab_model"
    },
    {
      "children": [
        2
      ],
      "matrix": [
        1.0,
        0.0,
        0.0,
        0.0,
        0.0,
        0.0,
        1.0,
        0.0,
        0.0,
        -1.0,
        0.0,
        0.0,
        0.0,
        0.0,
        0.0,
        1.0
      ],
      "name": "bottle_low.FBX"
    },
    {
      "children": [
        3,
        5
      ],
      "name": "RootNode"
    },
    {
      "children": [
        4
      ],
      "matrix": [
        1.9474472999572754,
        0.0,
        0.0,
        0.0,
        0.0,
        4.3242016633133215e-16,
        -1.9474472999572754,
        0.0,
        0.0,
        1.3400229215621948,
        2.9754486020876377e-16,
        0.0,
        0.0,
        3.2590179443359375,
        0.0,
        1.0
      ],
      "name": "Bottle_low"
    },
    {
      "mesh": 0,
      "name": "Bottle_low__0"
    },
    {
      "children": [
        6
      ],
      "matrix": [
        1.9474472999572754,
        0.0,
        0.0,
        0.0,
        0.0,
        4.3242016633133215e-16,
        -1.9474472999572754,
        0.0,
        0.0,
        1.3400229215621948,
        2.9754486020876377e-16,
        0.0,
        0.0,
        3.2590179443359375,
        0.0,
        1.0
      ],
      "name": "Cap_low"
    },
    {
      "mesh": 1,
      "name": "Cap_low__0"
    }
  ],
  "samplers": [
    {
      "magFilter": 9729,
      "minFilter": 9987,
      "wrapS": 10497,
      "wrapT": 10497
    }
  ],
  "scene": 0,
  "scenes": [
    {
      "name": "Sketchfab_Scene",
      "nodes": [
        0
      ]
    }
  ],
  "textures": [
    {
      "sampler": 0,
      "source": 0
    },
    {
      "sampler": 0,
      "source": 1
    },
    {
      "sampler": 0,
      "source": 2
    }
  ]
}
